<svg width="36" height="40" viewBox="0 0 36 40" fill="none" xmlns="http://www.w3.org/2000/svg">
<path d="M29.6777 21.0929C29.6993 19.6091 30.1439 18.1542 30.9703 16.8636C31.7966 15.573 32.9779 14.4887 34.4041 13.7115C33.498 12.5646 32.3028 11.6207 30.9133 10.9548C29.5237 10.2889 27.9782 9.91942 26.3993 9.87563C23.0314 9.56228 19.7664 11.662 18.0502 11.662C16.3007 11.662 13.6583 9.90674 10.8129 9.95864C8.97239 10.0113 7.17868 10.4857 5.60652 11.3356C4.03437 12.1855 2.73738 13.3819 1.84194 14.8082C-2.03692 20.7609 0.856361 29.5095 4.57198 34.3212C6.43099 36.6774 8.60363 39.3093 11.4465 39.216C14.2284 39.1137 15.2674 37.6436 18.6254 37.6436C21.9522 37.6436 22.927 39.216 25.8275 39.1566C28.8127 39.1137 30.6934 36.79 32.4872 34.4115C33.8229 32.7326 34.8507 30.8771 35.5326 28.9137C33.7983 28.2635 32.3183 27.1752 31.2772 25.7844C30.236 24.3937 29.6797 22.7621 29.6777 21.0929Z" fill="white"/>
<path d="M24.2067 6.70945C25.8343 4.97753 26.6361 2.75143 26.442 0.503906C23.9553 0.735409 21.6584 1.78885 20.0088 3.45432C19.2022 4.26795 18.5845 5.21451 18.1909 6.23987C17.7973 7.26524 17.6356 8.34932 17.7149 9.43013C18.9587 9.44148 20.1892 9.20253 21.3136 8.73126C22.4381 8.25999 23.4273 7.5687 24.2067 6.70945Z" fill="white"/>
</svg>
