<svg width="36" height="36" viewBox="0 0 36 36" fill="none" xmlns="http://www.w3.org/2000/svg">
<g clip-path="url(#clip0_3_15730)">
<path d="M35.4861 18.4051C35.4861 8.68798 27.6086 0.810547 17.8915 0.810547C8.1743 0.810547 0.296875 8.68784 0.296875 18.4051C0.296875 27.187 6.731 34.4661 15.1423 35.786V23.4911H10.6749V18.4051H15.1423V14.5288C15.1423 10.1192 17.7691 7.68343 21.788 7.68343C23.7131 7.68343 25.7266 8.02708 25.7266 8.02708V12.357H23.508C21.3221 12.357 20.6406 13.7133 20.6406 15.1048V18.4051H25.5204L24.7403 23.4911H20.6406V35.786C29.0519 34.4661 35.4861 27.1872 35.4861 18.4051Z" fill="#1877F2"/>
<path d="M24.7411 23.4912L25.5212 18.4053H20.6415V15.1049C20.6415 13.7133 21.3231 12.3572 23.5088 12.3572H25.7274V8.02724C25.7274 8.02724 23.7139 7.68359 21.7888 7.68359C17.77 7.68359 15.1432 10.1193 15.1432 14.529V18.4053H10.6758V23.4912H15.1432V35.7861C16.0526 35.9287 16.9718 36.0001 17.8923 35.9999C18.8129 36.0002 19.732 35.9287 20.6415 35.7861V23.4912H24.7411Z" fill="white"/>
</g>
<defs>
<clipPath id="clip0_3_15730">
<rect width="35.1892" height="35.1892" fill="white" transform="translate(0.296875 0.810547)"/>
</clipPath>
</defs>
</svg>
