<svg width="36" height="36" viewBox="0 0 36 36" fill="none" xmlns="http://www.w3.org/2000/svg">
<path d="M26.9417 0.810547H8.24747C3.69252 0.810547 0 4.50306 0 9.05801V27.7523C0 32.3072 3.69252 35.9997 8.24747 35.9997H26.9417C31.4967 35.9997 35.1892 32.3072 35.1892 27.7523V9.05801C35.1892 4.50306 31.4967 0.810547 26.9417 0.810547Z" fill="url(#paint0_radial_3_15721)"/>
<path d="M26.9417 0.810547H8.24747C3.69252 0.810547 0 4.50306 0 9.05801V27.7523C0 32.3072 3.69252 35.9997 8.24747 35.9997H26.9417C31.4967 35.9997 35.1892 32.3072 35.1892 27.7523V9.05801C35.1892 4.50306 31.4967 0.810547 26.9417 0.810547Z" fill="url(#paint1_radial_3_15721)"/>
<path d="M17.5966 4.66016C13.8635 4.66016 13.395 4.67651 11.9288 4.74318C10.4655 4.81026 9.46655 5.04188 8.59259 5.38181C7.68839 5.73288 6.92152 6.20257 6.15753 6.96683C5.39285 7.73096 4.92315 8.49784 4.57099 9.40162C4.23009 10.2759 3.9982 11.2752 3.93236 12.7379C3.86679 14.2041 3.84961 14.6729 3.84961 18.4061C3.84961 22.1393 3.8661 22.6064 3.93263 24.0725C3.99999 25.5359 4.2316 26.5348 4.57126 27.4087C4.9226 28.3129 5.3923 29.0798 6.15656 29.8438C6.92042 30.6085 7.68729 31.0793 8.5908 31.4303C9.46545 31.7703 10.4645 32.0019 11.9276 32.069C13.3939 32.1356 13.862 32.152 17.595 32.152C21.3285 32.152 21.7955 32.1356 23.2617 32.069C24.725 32.0019 25.725 31.7703 26.5997 31.4303C27.5035 31.0793 28.2693 30.6085 29.033 29.8438C29.7976 29.0798 30.2672 28.3129 30.6195 27.4091C30.9574 26.5348 31.1894 25.5356 31.2581 24.0728C31.324 22.6066 31.3412 22.1393 31.3412 18.4061C31.3412 14.6729 31.324 14.2044 31.2581 12.7381C31.1894 11.2748 30.9574 10.276 30.6195 9.40204C30.2672 8.49784 29.7976 7.73096 29.033 6.96683C28.2684 6.20229 27.5038 5.7326 26.5989 5.38195C25.7226 5.04188 24.7231 4.81012 23.2597 4.74318C21.7935 4.67651 21.3267 4.66016 17.5924 4.66016H17.5966ZM16.3635 7.13728C16.7295 7.13673 17.1379 7.13728 17.5966 7.13728C21.2669 7.13728 21.7018 7.15048 23.1512 7.21632C24.4914 7.27763 25.2188 7.50155 25.7033 7.68973C26.3448 7.9388 26.8022 8.23667 27.283 8.71791C27.7641 9.19901 28.0618 9.65716 28.3116 10.2987C28.4998 10.7825 28.724 11.51 28.785 12.8502C28.8508 14.2992 28.8651 14.7344 28.8651 18.4029C28.8651 22.0714 28.8508 22.5067 28.785 23.9557C28.7237 25.2959 28.4998 26.0233 28.3116 26.5073C28.0625 27.1488 27.7641 27.6056 27.283 28.0864C26.8019 28.5675 26.3451 28.8652 25.7033 29.1144C25.2193 29.3034 24.4914 29.5268 23.1512 29.5881C21.7021 29.654 21.2669 29.6683 17.5966 29.6683C13.9262 29.6683 13.4912 29.654 12.0422 29.5881C10.702 29.5263 9.97459 29.3023 9.48964 29.1142C8.84826 28.865 8.38998 28.5672 7.90887 28.0861C7.42777 27.605 7.13004 27.148 6.88028 26.5062C6.6921 26.0222 6.4679 25.2948 6.40687 23.9546C6.34103 22.5055 6.32784 22.0703 6.32784 18.3995C6.32784 14.7288 6.34103 14.2958 6.40687 12.8467C6.46818 11.5065 6.6921 10.7791 6.88028 10.2945C7.12949 9.65303 7.42777 9.19489 7.90901 8.71379C8.39011 8.23268 8.84826 7.93481 9.48978 7.68519C9.97431 7.49619 10.702 7.27282 12.0422 7.21123C13.3103 7.15391 13.8017 7.13673 16.3635 7.13385V7.13728ZM24.9341 9.41963C24.0235 9.41963 23.2846 10.1578 23.2846 11.0686C23.2846 11.9792 24.0235 12.7181 24.9341 12.7181C25.8448 12.7181 26.5836 11.9792 26.5836 11.0686C26.5836 10.1579 25.8448 9.41908 24.9341 9.41908V9.41963ZM17.5966 11.3469C13.6983 11.3469 10.5376 14.5076 10.5376 18.4061C10.5376 22.3045 13.6983 25.4637 17.5966 25.4637C21.4951 25.4637 24.6547 22.3045 24.6547 18.4061C24.6547 14.5078 21.4948 11.3469 17.5963 11.3469H17.5966ZM17.5966 13.8241C20.1271 13.8241 22.1786 15.8753 22.1786 18.4061C22.1786 20.9365 20.1271 22.9881 17.5966 22.9881C15.066 22.9881 13.0147 20.9365 13.0147 18.4061C13.0147 15.8753 15.066 13.8241 17.5966 13.8241Z" fill="white"/>
<defs>
<radialGradient id="paint0_radial_3_15721" cx="0" cy="0" r="1" gradientUnits="userSpaceOnUse" gradientTransform="translate(9.34713 38.71) rotate(-90) scale(34.8751 32.4366)">
<stop stop-color="#FFDD55"/>
<stop offset="0.1" stop-color="#FFDD55"/>
<stop offset="0.5" stop-color="#FF543E"/>
<stop offset="1" stop-color="#C837AB"/>
</radialGradient>
<radialGradient id="paint1_radial_3_15721" cx="0" cy="0" r="1" gradientUnits="userSpaceOnUse" gradientTransform="translate(-5.89433 3.34541) rotate(78.681) scale(15.5894 64.2599)">
<stop stop-color="#3771C8"/>
<stop offset="0.128" stop-color="#3771C8"/>
<stop offset="1" stop-color="#6600FF" stop-opacity="0"/>
</radialGradient>
</defs>
</svg>
