<svg width="36" height="36" viewBox="0 0 36 36" fill="none" xmlns="http://www.w3.org/2000/svg">
<path d="M27.5902 0.810547H8.8959C4.34095 0.810547 0.648438 4.50306 0.648438 9.05801V27.7523C0.648438 32.3072 4.34095 35.9997 8.8959 35.9997H27.5902C32.1451 35.9997 35.8376 32.3072 35.8376 27.7523V9.05801C35.8376 4.50306 32.1451 0.810547 27.5902 0.810547Z" fill="white"/>
<path d="M27.5902 0.810547H8.8959C4.34095 0.810547 0.648438 4.50306 0.648438 9.05801V27.7523C0.648438 32.3072 4.34095 35.9997 8.8959 35.9997H27.5902C32.1451 35.9997 35.8376 32.3072 35.8376 27.7523V9.05801C35.8376 4.50306 32.1451 0.810547 27.5902 0.810547Z" fill="#1D9BF0"/>
<path d="M28.0804 13.3761C28.0955 13.5942 28.0955 13.8124 28.0955 14.0326C28.0955 20.7401 22.9893 28.4759 13.6522 28.4759V28.4718C10.8938 28.4758 8.19262 27.6858 5.87109 26.1962C6.2722 26.2444 6.67522 26.2685 7.07935 26.2695C9.3655 26.2713 11.5859 25.5045 13.3837 24.0923C12.3245 24.0722 11.2979 23.7217 10.4477 23.0897C9.5974 22.4576 8.96589 21.5757 8.64142 20.5672C9.40194 20.7138 10.186 20.6839 10.9331 20.4797C8.56499 20.0013 6.8612 17.9206 6.8612 15.504V15.4397C7.56717 15.8329 8.35727 16.0508 9.16499 16.075C6.9346 14.5843 6.24704 11.617 7.59385 9.297C8.86826 10.8653 10.4583 12.1479 12.2607 13.0616C14.0632 13.9752 16.0376 14.4995 18.0559 14.6004C17.8547 13.7342 17.8844 12.8303 18.1421 11.9792C18.3998 11.1281 18.8764 10.3596 19.5244 9.75048C21.5689 7.82854 24.7845 7.9271 26.7064 9.97055C27.8432 9.74611 28.9333 9.32936 29.9299 8.73824C29.551 9.91359 28.7579 10.9113 27.6984 11.5457C28.7047 11.4271 29.6874 11.1578 30.6135 10.7466C29.9323 11.7668 29.0745 12.6572 28.0804 13.3761Z" fill="white"/>
</svg>
