<svg width="42" height="34" viewBox="0 0 42 34" fill="none" xmlns="http://www.w3.org/2000/svg">
<g clip-path="url(#clip0_3_15733)">
<path d="M41.0927 5.53719C40.8572 4.52055 40.3979 3.59371 39.7604 2.84896C39.1229 2.10421 38.3296 1.56755 37.4594 1.29241C34.2735 0.277344 21.4515 0.277344 21.4515 0.277344C21.4515 0.277344 8.62887 0.308069 5.44301 1.32313C4.57277 1.59829 3.77943 2.13498 3.14197 2.87977C2.50451 3.62455 2.04518 4.55142 1.80972 5.5681C0.846076 12.1812 0.472259 22.258 1.83618 28.6065C2.07166 29.6232 2.531 30.55 3.16846 31.2947C3.80592 32.0395 4.59925 32.5762 5.46947 32.8513C8.65533 33.8664 21.4777 33.8664 21.4777 33.8664C21.4777 33.8664 34.2998 33.8664 37.4855 32.8513C38.3558 32.5762 39.1492 32.0395 39.7866 31.2948C40.4241 30.55 40.8835 29.6232 41.119 28.6065C42.1354 21.9841 42.4486 11.9135 41.0927 5.53719Z" fill="#FF0000"/>
<path d="M17.3691 24.2702L28.006 17.0726L17.3691 9.875V24.2702Z" fill="white"/>
</g>
<defs>
<clipPath id="clip0_3_15733">
<rect width="41.0541" height="33.723" fill="white" transform="translate(0.945312 0.277344)"/>
</clipPath>
</defs>
</svg>
